<svg width="255" height="30" viewBox="0 0 255 30" fill="none" xmlns="http://www.w3.org/2000/svg">
<path d="M98.1429 0.547619L110.563 29.4444H107.397L103.214 19.7222H89.7778L90.9206 17.1032H102.079L96.619 4.01587L98.1429 0.547619ZM118.952 16.754L110.714 0.547619H107.508L117.548 19.8016V29.4444H120.437V19.8016L130.587 0.547619H127.429L118.952 16.754ZM152 0.547619L144.77 11.4841L137.627 0.547619H132.587L142.159 14.9603L132.595 29.4444H137.516L144.778 18.4286L151.968 29.4444H156.929L147.357 14.9524L157.008 0.539683H152V0.547619ZM178.563 9.29365C178.563 14.4444 175.286 18.0397 168.373 18.0397H164.23V29.4444H160.016V0.547619H168.373C175.286 0.547619 178.563 4.14286 178.563 9.29365ZM174.349 9.29365C174.349 7.14286 173.175 4.4127 168.373 4.4127H164.23V14.1746H168.373C173.175 14.1825 174.349 11.4444 174.349 9.29365ZM225.143 11.7936C223.897 11.3254 221.278 10.5794 221.278 7.80952C221.278 6.12698 222.643 3.86508 225.143 3.86508C226.865 3.86508 229.206 4.84127 229.206 8.04762H233.421C233.421 3.16667 229.944 0 225.143 0C219.675 0 217.056 4.49206 217.056 7.84921C217.056 9.88095 217.683 11.9921 219.008 13.2778C220.341 14.5635 221.278 15.0317 225.143 16.5159C227.135 17.3016 229.794 18 229.794 21.246C229.794 24.2936 227.802 26.127 225.143 26.127C220.889 26.127 220.46 21.873 220.46 20.8889H216.238C216.238 27.3333 221.159 29.9921 225.143 29.9921C230.452 29.9921 234.008 26.2778 234.008 21.246C234.008 14.2936 228.778 13.1667 225.143 11.7936ZM245.183 11.7936C243.936 11.3254 241.317 10.5794 241.317 7.80952C241.317 6.12698 242.683 3.86508 245.183 3.86508C246.905 3.86508 249.246 4.84127 249.246 8.04762H253.468C253.468 3.16667 249.992 0 245.183 0C239.714 0 237.103 4.49206 237.103 7.84921C237.103 9.88095 237.73 11.9921 239.056 13.2778C240.381 14.5635 241.317 15.0317 245.19 16.5159C247.183 17.3016 249.833 18 249.833 21.246C249.833 24.2936 247.841 26.127 245.19 26.127C240.936 26.127 240.5 21.873 240.5 20.8889H236.286C236.286 27.3333 241.206 29.9921 245.19 29.9921C250.5 29.9921 254.056 26.2778 254.056 21.246C254.048 14.2936 248.817 13.1667 245.183 11.7936ZM88.4048 9.18254C88.4048 12.2302 86.9603 14.6905 84.8095 16.1349C83.2063 17.1905 81.3333 17.8095 77.3492 17.8095H72.1905V29.4444H69.3016V22.5476H49.6032C49.3254 22.5476 49.1032 22.3254 49.1032 22.0476V20.4048C49.1032 20.127 49.3254 19.9048 49.6032 19.9048H69.3016V17.619H0.5C0.222222 17.619 0 17.3889 0 17.119V15.4762C0 15.1984 0.222222 14.9762 0.5 14.9762H69.3016V12.6825H31.1032C30.8254 12.6825 30.6032 12.4603 30.6032 12.1825V10.5397C30.6032 10.2698 30.8254 10.0397 31.1032 10.0397H69.3016V0.547619H77.3492C81.3333 0.547619 83.2063 1.1746 84.8095 2.22222C86.9603 3.6746 88.4048 6.13492 88.4048 9.18254ZM85.5159 9.18254C85.5159 6.99206 84.4206 4.96032 82.1587 3.9127C80.5159 3.1746 79.4603 3.1746 76.3809 3.1746H72.1984V15.2063H76.3809C79.4682 15.2063 80.5159 15.2063 82.1587 14.4603C84.4206 13.3968 85.5159 11.3651 85.5159 9.18254ZM197.262 9.80159C197.262 7.38095 196.444 4.72222 194.611 2.96825C193.087 1.52381 190.976 0.547619 186.921 0.547619H182.167L182.175 4.4127H186.651C191.413 4.4127 193.056 7.38095 193.056 9.80159C193.056 15.3889 186.802 15.4683 185.087 15.4683H182.19V16.0556H182.27L192.349 29.9127H197.619L188.984 18.6667C190.857 18.6667 197.262 17.4603 197.262 9.80159ZM212.563 25.9762H201.952C201.714 25.9762 201.516 26.1746 201.516 26.4127V29.4683C201.516 29.7143 201.714 29.9127 201.952 29.9127H212.563C212.809 29.9127 213 29.7143 213 29.4683V26.4127C213 26.1746 212.802 25.9762 212.563 25.9762ZM212.563 12.9365H201.952C201.714 12.9365 201.516 13.1349 201.516 13.373V16.4286C201.516 16.6746 201.714 16.873 201.952 16.873H212.563C212.809 16.873 213 16.6746 213 16.4286V13.373C213 13.1349 212.802 12.9365 212.563 12.9365ZM212.563 0.555556H201.952C201.714 0.555556 201.516 0.753968 201.516 1V4.05556C201.516 4.30159 201.714 4.5 201.952 4.5H212.563C212.809 4.5 213 4.30159 213 4.05556V0.992063C213 0.753968 212.802 0.555556 212.563 0.555556Z" fill="#FA5818"/>
</svg>
